<?xml version="1.0"?>
<svg xmlns="http://www.w3.org/2000/svg" viewBox="0 0 64 64" width="512" height="512"><circle cx="32" cy="32" fill="#eeeeed" r="29"/><g fill="#d3ac5c"><circle cx="50" cy="17" r="2"/><circle cx="51" cy="28" r="6"/><circle cx="37" cy="30" r="5"/></g><circle cx="24" cy="31" fill="#db735c" r="4"/><circle cx="11" cy="38" fill="#db735c" r="2"/><circle cx="42" cy="10" fill="#60a867" r="4"/><circle cx="49" cy="42" fill="#5eb8ab" r="5"/><circle cx="34" cy="55" fill="#5eb8ab" r="3"/><circle cx="22" cy="46" fill="#db735c" r="8"/><circle cx="37" cy="43" fill="#5eb8ab" r="4"/><circle cx="29" cy="16" fill="#60a867" r="7"/><circle cx="13" cy="25" fill="#60a867" r="5"/><circle cx="16" cy="13" fill="#60a867" r="3"/><path d="m47 17a3 3 0 1 0 3-3 3.00328 3.00328 0 0 0 -3 3zm4 0a1 1 0 1 1 -1-1 1.001 1.001 0 0 1 1 1z"/><path d="m44 28a7 7 0 1 0 7-7 7.00818 7.00818 0 0 0 -7 7zm12 0a5 5 0 1 1 -5-5 5.00588 5.00588 0 0 1 5 5z"/><path d="m31 30a6 6 0 1 0 6-6 6.00657 6.00657 0 0 0 -6 6zm10 0a4 4 0 1 1 -4-4 4.00427 4.00427 0 0 1 4 4z"/><path d="m24 36a5 5 0 1 0 -5-5 5.00588 5.00588 0 0 0 5 5zm0-8a3 3 0 1 1 -3 3 3.00328 3.00328 0 0 1 3-3z"/><path d="m14 38a3 3 0 1 0 -3 3 3.00328 3.00328 0 0 0 3-3zm-3 1a1 1 0 1 1 1-1 1.001 1.001 0 0 1 -1 1z"/><path d="m32 2a30 30 0 1 0 30 30 30.03406 30.03406 0 0 0 -30-30zm13 8a3 3 0 1 1 -3-3 3.00328 3.00328 0 0 1 3 3zm-29 1a2 2 0 1 1 -2 2 2.00229 2.00229 0 0 1 2-2zm16 49a27.98261 27.98261 0 0 1 -19.93561-47.6369 3.96349 3.96349 0 0 0 -.06439.6369 4 4 0 1 0 4.05115-3.99481 27.947 27.947 0 0 1 24.345-3.71753 4.998 4.998 0 1 0 6.23627 2.8515 27.99257 27.99257 0 0 1 -14.63242 51.86084z"/><path d="m49 36a6 6 0 1 0 6 6 6.00657 6.00657 0 0 0 -6-6zm0 10a4 4 0 1 1 4-4 4.00427 4.00427 0 0 1 -4 4z"/><path d="m34 51a4 4 0 1 0 4 4 4.00427 4.00427 0 0 0 -4-4zm0 6a2 2 0 1 1 2-2 2.00229 2.00229 0 0 1 -2 2z"/><path d="m22 37a9 9 0 1 0 9 9 9.01016 9.01016 0 0 0 -9-9zm0 16a7 7 0 1 1 7-7 7.00818 7.00818 0 0 1 -7 7z"/><path d="m37 38a5 5 0 1 0 5 5 5.00588 5.00588 0 0 0 -5-5zm0 8a3 3 0 1 1 3-3 3.00328 3.00328 0 0 1 -3 3z"/><path d="m29 24a8 8 0 1 0 -8-8 8.00917 8.00917 0 0 0 8 8zm0-14a6 6 0 1 1 -6 6 6.00657 6.00657 0 0 1 6-6z"/><path d="m13 31a6 6 0 1 0 -6-6 6.00657 6.00657 0 0 0 6 6zm0-10a4 4 0 1 1 -4 4 4.00427 4.00427 0 0 1 4-4z"/></svg>
