<svg xmlns="http://www.w3.org/2000/svg" viewBox="0 0 274.9 147.27"><defs><style>.cls-1{fill:#8eb04c;}.cls-2{fill:#704132;}.cls-3{fill:#699dbe;}.cls-4{fill:#75a5c3;}.cls-5{fill:#348950;}</style></defs><g id="Camada_2" data-name="Camada 2"><g id="Camada_1-2" data-name="Camada 1"><path class="cls-1" d="M69.69,101.3C62.4,94.76,53.85,90,45.69,84.77,38.9,80.39,35.15,74.44,34.63,66.46c-1-14.6-8.55-23.28-22.85-26.64-7.41-1.74-7.32-2.16-4.64-9.08,5.23-13.5,5.24-13.54,18-7.36,10,4.85,19.92,9.74,31.37,10.18,6.08.23,10.25,3.94,13.86,8.4-1.15,2.9-.69,6-1,9-1.31-.21-1.78-1.38-2.53-2.22-3-3.43-6.59-5.43-11.38-4.16-4.54,1.2-6,4.78-6.95,8.76-2.08,8.71.18,16.42,6,23,4.81,5.41,10.11,10.4,15.19,15.58Z"/><path class="cls-2" d="M69.69,101.3c0-3.15,0-6.3,0-9.45C74.75,86.9,80,82.15,84.88,77c5.79-6.18,8.78-13.55,7.06-22.16-.92-4.63-2.56-9.18-7.86-10.39s-8.79,1.63-11.65,5.67c-.7,1-1.31,3.33-3.08.84.31-3-.15-6.07,1-9a14.1,14.1,0,0,1,12.22-8.11c13.84-.79,25.48-7.66,37.64-13.13,6-2.69,6.64-2.48,9.55,3.26,2,4,5.32,8.24,4.49,12.28-1,4.63-7,3.66-10.81,4.79-13.23,4-17.75,13.85-18.88,26.17-.68,7.51-4.11,12.92-10.48,17C85.69,89.48,77.2,94.7,69.69,101.3Z"/><path class="cls-3" d="M90.47,131.16c15.19-7.36,27.34-17,35.44-31.11,9.05-15.74,11.62-32.49,7.37-50.2-.31-1.29-.65-2.56-1-3.84-.44-1.6-1.17-3.28,1.35-3.87,2.17-.51,2.49,1,2.83,2.52.8,3.38,1.68,6.73,2.33,10.13,5.71,30.05-12.24,63.32-40.47,75C96.07,130.74,93.83,132.05,90.47,131.16Z"/><path class="cls-3" d="M48.63,131.78c-8.73-1.64-15.34-5.68-21.47-10.45A71.06,71.06,0,0,1,3,45.2c.43-1.42.45-3.71,3-3.05C9,43,7.7,45.29,7.23,47c-5.18,19-3,37,7.13,54,7.18,12,17.46,20.64,29.56,27.34C45.32,129.11,47.05,129.41,48.63,131.78Z"/><path class="cls-3" d="M115.2,17.69c-.88,1.94-1.86,2.61-3.07,2.31a6.78,6.78,0,0,1-2.51-1.53C88.82.68,53.52-1.71,30,18.87c-1.36,1.2-2.83,2-4.35.43-1.73-1.8.34-2.67,1.26-3.45,24.76-21,60.4-20.8,84.39-1.45C112.66,15.53,114,16.71,115.2,17.69Z"/><path class="cls-5" d="M64.45,142c.46-3.68,2.06-6.1,5.63-6s5.35,2.54,5.24,5.9c-.09,3.14-2,5.37-5.25,5.38C66.57,147.29,64.93,144.91,64.45,142Z"/><path class="cls-1" d="M75.21,115.31c-.5,3-2.08,5.19-5.43,5.13s-5.17-2.12-5.24-5.38c-.07-3.41,2-5.22,5.25-5.28C73.21,109.73,74.63,112.11,75.21,115.31Z"/></g></g></svg>